<svg width="1179" height="1179" viewBox="0 0 1179 1179" fill="none" xmlns="http://www.w3.org/2000/svg">
<path fill-rule="evenodd" clip-rule="evenodd" d="M385.973 536.793C385.973 536.793 391.339 523.786 401.168 515.901C410.997 508.015 418.547 497.994 423.96 502.606C429.374 507.218 412.324 565.242 406.867 578.579C401.41 591.915 375.91 674.29 372.678 683.042C369.445 691.794 368.879 705.834 368.879 705.834L401.168 707.734C401.168 707.734 424.953 632.624 431.557 614.666C438.161 596.708 454.974 562.794 465.746 548.19C476.518 533.586 490.393 514.186 501.833 508.302C513.273 502.419 525.197 497 528.424 504.504C531.65 512.008 525.787 542.228 522.725 553.886C519.664 565.545 506.178 607.053 503.733 614.666C501.289 622.278 492.568 655.282 488.538 665.948C484.508 676.614 477.141 705.834 477.141 705.834H511.33C511.33 705.834 522.603 659.633 530.324 639.358C538.044 619.083 559.019 568.203 564.511 557.687C570.003 547.17 590.443 519.385 600.598 512.103C610.753 504.82 618.658 495.992 629.089 498.807C639.519 501.623 640.246 518.023 636.687 532.994C633.129 547.966 608.833 615.857 608.197 622.264C607.56 628.672 593.837 675.298 598.7 688.74C603.563 702.183 620.859 709.892 630.989 709.634C641.118 709.377 654.877 697.671 665.176 688.74C675.474 679.809 686.078 666.064 687.968 662.15C689.858 658.236 689.668 648.668 684.17 652.653C678.671 656.638 660.641 677.609 655.679 681.144C650.717 684.679 642.071 695.471 632.887 688.74C623.703 682.01 635.789 645.137 638.585 635.56C641.382 625.982 657.897 577.808 659.479 572.88C661.061 567.952 669.888 541.075 668.976 523.498C668.064 505.921 661.527 490.519 644.284 481.712C627.041 472.905 604.249 491.358 596.8 498.807C589.35 506.257 573.153 522.586 566.411 531.094C559.669 539.603 553.116 553.886 553.116 553.886C553.116 553.886 558.496 519.283 556.914 512.103C555.332 504.923 553.731 487.778 536.022 485.51C518.314 483.243 500.99 486.819 486.638 500.706C472.286 514.592 465.314 525.052 460.048 531.094C454.781 537.137 444.852 553.886 444.852 553.886C444.852 553.886 451.899 529.198 452.451 521.599C453.003 514.001 453.854 500.474 446.752 493.109C439.651 485.744 434.064 480.608 422.06 485.51C410.056 490.413 393.709 502.639 385.973 512.103C378.237 521.566 374.906 529.756 372.678 534.895C370.449 540.033 369.359 541.837 374.578 542.491C379.797 543.146 385.973 536.793 385.973 536.793Z" fill="#F4FD3F"/>
<path fill-rule="evenodd" clip-rule="evenodd" d="M798.13 360.155C804.141 360.155 810.016 361.937 815.014 365.276C820.012 368.615 823.907 373.362 826.207 378.915C828.507 384.468 829.109 390.578 827.937 396.473C826.764 402.368 823.87 407.783 819.62 412.033C815.37 416.284 809.955 419.178 804.059 420.351C798.164 421.523 792.054 420.921 786.501 418.621C780.948 416.321 776.202 412.425 772.862 407.428C769.523 402.43 767.741 396.554 767.741 390.544C767.741 382.484 770.943 374.755 776.642 369.056C782.341 363.357 790.07 360.155 798.13 360.155Z" fill="#F4FD3F"/>
<path fill-rule="evenodd" clip-rule="evenodd" d="M705.063 538.693C705.063 538.693 725.02 502.84 737.352 495.007C749.685 487.175 761.974 477.133 775.338 479.814C788.702 482.494 796.632 487.705 798.13 500.706C799.627 513.706 791.995 540.86 782.936 570.982C773.878 601.103 762.123 639.643 758.244 648.855C754.365 658.067 748.18 682.843 756.346 686.84C764.513 690.837 779.405 687.054 784.835 681.144C790.264 675.233 809.527 645.056 809.527 645.056L822.822 643.156C822.822 643.156 807.764 676.601 794.331 686.84C780.899 697.08 776.847 703.663 760.144 705.834C743.442 708.005 728.761 705.266 725.955 690.64C723.149 676.015 723.196 653.423 727.856 639.358C732.515 625.292 751.404 574.723 754.446 565.283C757.488 555.843 767.069 524.337 767.741 515.901C768.413 507.465 770.81 494.934 756.346 496.907C741.882 498.88 718.359 538.693 718.359 538.693H705.063Z" fill="#F4FD3F"/>
<path d="M589.499 1078.72C859.676 1078.72 1078.7 859.699 1078.7 589.522C1078.7 319.345 859.676 100.323 589.499 100.323C319.323 100.323 100.301 319.345 100.301 589.522C100.301 859.699 319.323 1078.72 589.499 1078.72Z" stroke="white" stroke-width="22.6722"/>
<path fill-rule="evenodd" clip-rule="evenodd" d="M731.654 316.469C633.253 267.211 516.363 271.728 423.961 329.764C317.754 396.47 266.631 518.905 281.51 633.659C293.778 728.272 349.764 811.565 429.659 859.682C524.795 916.977 652.292 922.772 756.346 857.781C867.52 788.342 903.326 672.914 902.595 588.075C902.169 538.703 889.63 490.374 866.506 445.625C856.377 450.691 846.247 455.756 836.117 460.82C877.103 543.309 878.487 641.266 834.219 722.929C781.917 819.411 670.543 882.89 551.216 865.38C430.732 847.699 339.106 752.505 319.497 639.358C302.852 543.309 339.709 446.334 410.666 384.845C492.887 313.594 612.789 296.86 716.459 344.96C721.525 335.463 726.59 325.966 731.654 316.469Z" fill="white"/>
<path fill-rule="evenodd" clip-rule="evenodd" d="M313.799 362.053L304.302 375.348L241.625 322.168L253.02 306.972L289.107 324.068L268.215 289.879L279.61 274.683L342.29 329.764L328.994 343.06L302.402 318.369L315.699 348.758L287.209 337.363L313.799 362.053Z" fill="white"/>
<path fill-rule="evenodd" clip-rule="evenodd" d="M328.994 287.979C341.755 306.467 371.295 314.65 384.075 303.174C395.667 292.765 390.794 264.727 380.277 249.993C369.236 234.525 346 224.169 331.791 233.118C317.509 242.114 317.497 271.323 328.994 287.979ZM345.699 278.857C352.533 288.169 365.575 295.507 371.859 292.669C378.735 289.563 376.711 274.937 369.751 263.66C361.759 250.713 345.654 239.618 339.474 247.4C334.469 253.701 339.059 269.81 345.699 278.857Z" fill="white"/>
<path fill-rule="evenodd" clip-rule="evenodd" d="M376.477 206.307L382.175 221.503L397.37 212.006L427.759 270.885L442.954 263.288L414.464 206.307L427.759 198.711L420.162 183.516L376.477 206.307Z" fill="white"/>
<path fill-rule="evenodd" clip-rule="evenodd" d="M448.653 174.019L469.545 249.993L488.538 246.195L479.042 213.906L494.237 208.208L501.834 242.395L518.927 238.596L498.035 158.825L480.942 164.523L488.538 196.811L475.243 198.711L465.746 170.221L448.653 174.019Z" fill="white"/>
<path fill-rule="evenodd" clip-rule="evenodd" d="M562.613 151.226V168.322H545.518V185.416H566.412V200.612H547.418V217.705H566.412V234.799L534.123 236.699L528.424 155.027L562.613 151.226Z" fill="white"/>
<path fill-rule="evenodd" clip-rule="evenodd" d="M587.303 232.898V151.226C587.303 151.226 617.238 146.198 625.291 151.226C633.343 156.255 642.518 166.479 640.486 185.415C638.454 204.35 625.291 208.207 625.291 208.207L638.586 232.897H619.592L606.297 208.207V232.897H587.303V232.898ZM606.297 194.912V166.422C606.297 166.422 608.851 164.192 613.896 164.522C618.94 164.853 621.492 170.221 621.492 170.221V189.214C621.492 189.214 618.922 194.069 615.794 194.912C612.665 195.755 606.297 194.912 606.297 194.912Z" fill="white"/>
<path fill-rule="evenodd" clip-rule="evenodd" d="M672.775 242.395L693.667 244.295L708.862 164.523L689.868 162.623L672.775 242.395Z" fill="white"/>
<path fill-rule="evenodd" clip-rule="evenodd" d="M706.962 248.093L739.251 172.12L752.546 179.717V221.503L767.742 183.516L784.835 193.013L754.447 267.087L739.251 261.388V219.603L724.058 255.69L706.962 248.093Z" fill="white"/>
<path fill-rule="evenodd" clip-rule="evenodd" d="M769.642 274.684L811.427 206.307L834.219 217.704C834.219 217.704 850.794 228.457 847.515 246.195C844.235 263.933 820.922 287.981 820.922 287.981C820.922 287.981 811.653 296.78 798.13 293.677C784.607 290.575 769.642 274.684 769.642 274.684ZM819.024 229.1C819.024 229.1 833.282 231.886 826.621 246.195C819.959 260.504 809.527 272.785 809.527 272.785C809.527 272.785 805.236 279.639 794.332 274.684L792.434 272.785L819.024 229.1Z" fill="white"/>
<path fill-rule="evenodd" clip-rule="evenodd" d="M877.903 251.891L891.199 265.187L836.118 324.068L824.723 312.671L877.903 251.891Z" fill="white"/>
<path fill-rule="evenodd" clip-rule="evenodd" d="M847.515 335.463L919.689 291.779L938.683 314.571L887.4 377.249L874.105 363.954L885.5 354.457L874.105 341.161L862.708 348.758L847.515 335.463ZM887.4 331.665L917.789 312.671V316.469L894.997 341.161L887.4 331.665Z" fill="white"/>
<path fill-rule="evenodd" clip-rule="evenodd" d="M923.487 411.438H957.676L967.173 381.047L976.668 411.438H1010.86L984.267 432.329L993.763 462.718L969.071 441.826L940.581 462.718L950.078 430.429L923.487 411.438Z" fill="white"/>
<path fill-rule="evenodd" clip-rule="evenodd" d="M989.965 508.302L982.367 536.793L946.279 534.895L974.77 555.786L965.273 586.175L991.863 567.183L1018.45 588.075L1007.06 555.786L1033.65 536.793L1001.36 534.895L989.965 508.302Z" fill="white"/>
<path fill-rule="evenodd" clip-rule="evenodd" d="M959.574 637.458L976.668 643.156C976.668 643.156 969.409 650.101 969.071 654.553C968.733 659.006 973.398 663.987 978.568 664.048C983.738 664.109 990.698 652.111 993.763 648.855C996.829 645.599 1006.34 642.632 1012.76 643.156C1019.18 643.681 1029.99 653.805 1029.85 662.15C1029.71 670.495 1022.25 683.042 1022.25 683.042L1005.16 681.144C1005.16 681.144 1012.37 674.744 1014.66 669.747C1016.94 664.75 1013.46 659.582 1007.06 660.25C1000.66 660.918 994.881 670.531 991.863 673.545C988.845 676.559 985.658 682.885 970.971 679.244C956.285 675.602 953.876 660.25 953.876 660.25C953.876 660.25 951.995 645.74 959.574 637.458Z" fill="white"/>
<path fill-rule="evenodd" clip-rule="evenodd" d="M950.078 673.545L976.668 698.237L1022.25 694.439L1016.56 711.532L988.065 715.331L1012.76 722.93L1008.96 740.023L938.683 719.129L942.481 703.936L967.173 711.532L946.279 690.641L950.078 673.545Z" fill="white"/>
<path fill-rule="evenodd" clip-rule="evenodd" d="M938.682 721.029L953.876 730.526C953.876 730.526 945.222 731.416 944.381 740.023C943.54 748.63 954.919 759.365 963.373 760.915C971.826 762.465 979.947 763.823 984.266 760.915C988.586 758.007 988.065 745.722 988.065 745.722L1001.36 751.418C1001.36 751.418 1002.21 766.476 991.863 772.312C981.511 778.148 961.339 779.038 951.978 774.21C942.616 769.382 928.252 760.141 927.285 747.62C926.319 735.099 938.682 721.029 938.682 721.029Z" fill="white"/>
<path fill-rule="evenodd" clip-rule="evenodd" d="M915.89 768.514L984.267 797.002L974.77 810.299L961.475 804.601L955.776 815.996L965.273 825.493L955.776 840.688L902.595 789.405L915.89 768.514ZM919.689 785.607L944.381 808.399L950.078 800.802L919.689 785.607Z" fill="white"/>
<path fill-rule="evenodd" clip-rule="evenodd" d="M881.701 815.996L893.098 802.701L950.078 848.285L940.581 859.682L904.493 850.185L931.084 872.977L921.587 884.372L864.608 838.788L874.105 827.393L910.192 836.89L881.701 815.996Z" fill="white"/>
<path fill-rule="evenodd" clip-rule="evenodd" d="M860.81 842.588L872.205 859.682C872.205 859.682 863.115 858.915 860.81 861.58C858.505 864.244 858.041 873.932 860.81 876.775C863.578 879.619 872.859 877.974 877.903 874.877C882.947 871.78 895.688 872.81 900.695 878.675C905.702 884.541 908.974 897.549 904.493 905.266C900.013 912.982 885.5 916.661 885.5 916.661L872.205 905.266C872.205 905.266 886.581 903.788 889.3 901.467C892.02 899.147 891.851 891.45 887.4 890.07C882.949 888.691 876.201 887.255 866.506 891.971C856.811 896.687 846.145 887.262 843.714 878.675C841.283 870.088 840.674 858.371 847.514 852.083C854.355 845.795 860.81 842.588 860.81 842.588Z" fill="white"/>
<path fill-rule="evenodd" clip-rule="evenodd" d="M832.319 920.461H845.614V931.856L857.011 933.756L855.111 947.051L843.714 945.151C843.714 945.151 842.384 961.345 824.722 964.145C807.061 966.945 802.3 962.84 798.13 958.446C793.96 954.053 794.819 945.841 796.232 941.353C797.645 936.865 800.03 931.856 800.03 931.856C800.03 931.856 788.922 928.229 786.735 924.259C784.548 920.29 780.032 906.266 788.633 899.567C797.234 892.869 804.974 891.827 815.225 897.669C825.477 903.511 819.024 924.259 819.024 924.259C819.024 924.259 820.896 926.617 824.722 928.058C827.18 928.957 829.727 929.594 832.319 929.958V920.461ZM801.93 905.266C801.93 905.266 796.66 907.777 796.232 910.964C795.803 914.151 799.871 919.608 801.93 920.461C803.99 921.314 807.493 922.062 809.527 920.461C811.561 918.86 811.291 915.258 811.427 912.862C811.563 910.467 810.038 908.978 807.627 907.164C805.216 905.35 801.93 905.266 801.93 905.266ZM809.527 937.555L830.419 941.353C830.419 941.353 831.156 943.526 828.521 947.051C825.886 950.577 819.094 955.332 815.225 952.75C811.356 950.168 809.334 945.753 809.527 943.253C809.635 941.355 809.635 939.453 809.527 937.555Z" fill="white"/>
<path fill-rule="evenodd" clip-rule="evenodd" d="M750.647 924.259L756.346 941.353C756.346 941.353 745.994 938.36 743.049 941.353C740.103 944.346 735.291 955.226 746.849 958.446C758.407 961.667 772.868 958.362 777.238 975.542C781.608 992.722 767.969 995.449 762.043 998.334C756.116 1001.22 744.949 1000.23 744.949 1000.23L739.25 986.937C739.25 986.937 753.509 990.307 758.244 986.937C762.98 983.567 761.27 973.318 754.446 971.742C747.621 970.166 735.621 973.115 731.654 969.843C727.686 966.572 719.241 957.273 722.157 947.051C725.073 936.83 730.147 930.726 735.452 928.058C740.758 925.389 750.647 924.259 750.647 924.259Z" fill="white"/>
<path fill-rule="evenodd" clip-rule="evenodd" d="M672.775 948.95L714.561 939.453L718.359 950.85L706.962 956.548L722.157 1011.63L706.962 1015.43L689.868 960.347L676.573 962.245L672.775 948.95Z" fill="white"/>
<path fill-rule="evenodd" clip-rule="evenodd" d="M651.881 952.75L668.976 950.85L680.371 1021.13L663.278 1024.92L651.881 952.75Z" fill="white"/>
<path fill-rule="evenodd" clip-rule="evenodd" d="M629.089 956.548H644.284L648.083 1017.33C648.083 1017.33 642.866 1026.81 634.787 1028.72C626.709 1030.63 613.896 1030.62 613.896 1030.62C613.896 1030.62 603.778 1023.3 602.499 1017.33C601.219 1011.35 598.7 958.446 598.7 958.446H613.896L617.694 1007.83C617.694 1007.83 617.379 1012.31 619.592 1015.43C621.805 1018.54 628.407 1017.54 630.989 1015.43C633.571 1013.31 632.887 1004.03 632.887 1004.03L629.089 956.548Z" fill="white"/>
<path fill-rule="evenodd" clip-rule="evenodd" d="M564.511 1005.93L562.613 1030.62H547.417L551.216 956.548H577.806C577.806 956.548 593.485 960.899 594.902 971.742C596.318 982.585 596.1 987.648 594.902 992.636C593.703 997.623 589.075 1002.6 587.303 1004.03C585.531 1005.46 581.607 1007.83 581.607 1007.83L591.103 1032.52H574.008L564.511 1005.93ZM564.511 967.943V996.434C564.511 996.434 571.838 998.965 575.908 994.534C579.978 990.103 579.706 975.542 579.706 975.542C579.706 975.542 580.661 974.626 575.908 971.742C571.155 968.857 564.511 967.943 564.511 967.943Z" fill="white"/>
<path fill-rule="evenodd" clip-rule="evenodd" d="M547.418 954.648L545.517 969.843L526.526 967.943L524.626 981.239L541.719 985.037L539.821 998.334L518.927 996.434L517.029 1024.92L501.833 1023.02L513.23 948.95L547.418 954.648Z" fill="white"/>
<path fill-rule="evenodd" clip-rule="evenodd" d="M456.25 935.654L473.343 939.453L477.141 971.742L492.337 945.151L509.43 950.85L479.042 990.735L471.445 1015.43C471.445 1015.43 453.556 1013.54 454.349 1011.63C455.143 1009.72 461.948 986.937 461.948 986.937L456.25 935.654Z" fill="white"/>
<path fill-rule="evenodd" clip-rule="evenodd" d="M429.659 975.542C429.659 975.542 439.791 976.383 444.852 969.843C449.914 963.304 454.864 950.657 454.349 943.253C453.834 935.849 444.852 926.158 444.852 926.158L420.162 914.763L389.771 983.139L404.967 990.735L414.464 967.943L416.364 994.534L431.557 1002.13L429.659 975.542ZM418.262 956.548C418.262 956.548 421.942 964.131 427.759 962.245C433.575 960.358 440.486 946.531 439.156 941.353C437.826 936.175 427.759 933.756 427.759 933.756L418.262 956.548Z" fill="white"/>
<path fill-rule="evenodd" clip-rule="evenodd" d="M376.476 888.172L403.069 905.266C403.069 905.266 410.876 917.327 406.867 928.058C402.858 938.789 387.873 958.446 387.873 958.446C387.873 958.446 380.121 969.969 366.98 967.943C353.838 965.917 336.591 950.85 336.591 950.85L376.476 888.172ZM357.485 947.051L382.175 909.064C382.175 909.064 392.904 913.244 391.672 920.461C390.44 927.678 382.175 939.453 382.175 939.453C382.175 939.453 374.975 951.347 370.78 952.75C366.585 954.153 357.485 947.051 357.485 947.051Z" fill="white"/>
<path fill-rule="evenodd" clip-rule="evenodd" d="M281.51 878.675L270.115 891.971C270.115 891.971 280.134 912.104 291.007 912.862C301.879 913.621 310.032 908.72 313.799 899.567C317.566 890.414 309.625 876.581 310 871.077C310.376 865.573 318.242 860.2 323.296 861.58C328.349 862.959 328.994 874.877 328.994 874.877L344.187 865.38C344.187 865.38 340.953 852.568 330.892 848.285C320.831 844.001 307.501 847.418 302.404 852.083C297.306 856.748 293.819 864.893 296.705 874.877C299.592 884.861 301.007 893.605 296.705 895.769C292.404 897.932 287.039 897.447 285.308 891.971C283.577 886.494 281.51 878.675 281.51 878.675Z" fill="white"/>
<path fill-rule="evenodd" clip-rule="evenodd" d="M291.006 802.701L317.597 836.89L306.202 848.285L296.705 834.989L251.121 872.977L241.624 859.682L287.208 823.594L279.609 812.197L291.006 802.701Z" fill="white"/>
<path fill-rule="evenodd" clip-rule="evenodd" d="M266.314 791.306L275.811 806.499L287.208 798.902L270.115 770.412L207.435 810.299L226.429 838.788L239.724 831.191L230.227 815.996L243.522 808.399L251.121 821.694L262.516 814.098L253.019 800.802L266.314 791.306Z" fill="white"/>
<path fill-rule="evenodd" clip-rule="evenodd" d="M186.543 770.412L253.019 738.123L268.214 764.715L254.919 772.312L247.322 757.117L234.025 764.715L241.624 778.01L228.329 785.607L220.73 770.412L209.335 778.01L216.932 793.204L203.637 800.802L186.543 770.412Z" fill="white"/>
<path fill-rule="evenodd" clip-rule="evenodd" d="M230.227 671.647L235.926 686.842L197.938 703.936L239.724 700.137L243.522 709.634L207.435 728.626L247.323 722.929L251.121 736.225L177.046 747.62L173.248 732.426L205.537 715.331L167.55 721.029L163.751 705.834L230.227 671.647Z" fill="white"/>
<path fill-rule="evenodd" clip-rule="evenodd" d="M171.348 646.955C171.348 646.955 164.14 665.577 169.448 667.848C174.757 670.12 182.765 664.154 184.643 654.553C186.522 644.952 196.855 634.666 209.335 635.56C221.815 636.454 229.49 647.811 230.227 654.553C230.964 661.295 230.227 673.545 230.227 673.545L211.233 671.647C211.233 671.647 215.112 669.216 215.033 662.15C214.955 655.084 203.554 652.388 201.736 654.553C199.919 656.719 196.653 669.006 192.24 675.445C187.828 681.884 172.351 688.776 163.751 683.042C155.15 677.308 153.685 671.053 154.254 664.048C154.823 657.043 156.153 646.955 156.153 646.955H171.348Z" fill="white"/>
<path fill-rule="evenodd" clip-rule="evenodd" d="M156.153 548.19H188.442L199.839 514.001L207.436 550.088L241.625 548.19L213.134 567.183L226.43 599.472L197.939 576.68L169.449 597.572L178.945 565.283L156.153 548.19Z" fill="white"/>
<path fill-rule="evenodd" clip-rule="evenodd" d="M213.134 422.833L222.63 388.646L234.025 422.833L266.314 424.733L237.826 441.826L249.221 474.115L222.63 453.221L196.039 472.215L205.537 439.926L180.845 424.733L213.134 422.833Z" fill="white"/>
</svg>
